<svg xmlns="http://www.w3.org/2000/svg" viewBox="0 0 1553.59 213.02"><defs><style>.cls-1{fill:#77c4ee;}.cls-2{fill:#57aadf;}.cls-3{fill:#9dd8f5;}.cls-4{fill:#56aadf;}.cls-5{fill:#1e68ab;}.cls-6{fill:#a6a6a6;}.cls-7{fill:#575858;}.cls-8{fill:#727171;}.cls-9{fill:gray;}.cls-10{fill:#565858;}</style></defs><g id="图层_2" data-name="图层 2"><g id="图层_1-2" data-name="图层 1"><path class="cls-1" d="M241.92,193.67H212.07V30.88c0-6.85,5.5-11.39,14.56-11.39h107.8c9.41,1.57,14.92,13.64,14.92,28.26H244.74a2.84,2.84,0,0,0-2.83,2.84Z"/><path class="cls-2" d="M334.43,19.49l-62.66,89.82s-3.07,4.41-3.07,6.54,3.54,7.4,3.54,7.4L318,193.67h31.33l-47.77-73.52s-2-2.61-1.95-4.3,1.82-3.82,1.82-3.82l32.62-44.12,15.27-20.16c7.57-10.27,2.64-19.35-3.44-24.5A17.44,17.44,0,0,0,334.43,19.49Z"/><path class="cls-1" d="M36.41,166.4h75.47l0,27.26H12.2A12.4,12.4,0,0,1,0,181.07V19.47H33.59l0,144.1A2.84,2.84,0,0,0,36.41,166.4Z"/><path class="cls-1" d="M164.14,47.76H68.68l0-28.26,116.85,0c6.42,0,12,5.5,12,10.13V182.65a11,11,0,0,1-11,11H124.29V166.4h39.85a2.84,2.84,0,0,0,2.84-2.83V50.6A2.84,2.84,0,0,0,164.14,47.76Z"/><path class="cls-3" d="M1153.52,14.87V79.55a5.26,5.26,0,0,1-5.26,5.26h-64.72v17.5H1150a21,21,0,0,0,21-21V14.87Z"/><path class="cls-4" d="M1267.15,84.83h-64.68a5.26,5.26,0,0,1-5.26-5.26V14.85h-17.5V81.3a21,21,0,0,0,21,21h66.41Z"/><path class="cls-5" d="M1197.19,197.88V133.2a5.26,5.26,0,0,1,5.26-5.26h64.72V110.43h-66.45a21,21,0,0,0-21,21v66.41Z"/><path class="cls-6" d="M1309.79,80.7h2.71V108h-2.71Zm1.92,24.82h15.65V108h-15.65Z"/><path class="cls-6" d="M1340,107.48a7.52,7.52,0,0,1-2.9-2.34l1.83-1.88a5.66,5.66,0,0,0,2.25,1.85,7.28,7.28,0,0,0,3.09.65,5.09,5.09,0,0,0,4.16-1.78,7.61,7.61,0,0,0,1.48-5V80.7h2.71V99a11.45,11.45,0,0,1-1,5,7.17,7.17,0,0,1-3,3.2,9.52,9.52,0,0,1-4.72,1.1A9,9,0,0,1,1340,107.48Z"/><path class="cls-6" d="M1367.11,80.68h2.7V108h-2.7ZM1368.78,94h9.32a5.3,5.3,0,0,0,2.68-.66,4.6,4.6,0,0,0,1.79-1.89,6.23,6.23,0,0,0,.65-2.82,6,6,0,0,0-.63-2.82,4.48,4.48,0,0,0-1.79-1.89,5.25,5.25,0,0,0-2.7-.67h-9.32V80.68H1378a8.62,8.62,0,0,1,4.17,1,6.81,6.81,0,0,1,2.78,2.77,9.17,9.17,0,0,1,0,8.29,6.91,6.91,0,0,1-2.79,2.78,8.61,8.61,0,0,1-4.16,1h-9.17Zm8.76,1.68,2.5-.87,7,13.28h-3.24Z"/><path class="cls-7" d="M1320.77,161.09h-7.6V127.4l-5.3,2.25v-8.16l5.79-2.93h7.11Z"/><path class="cls-7" d="M1335.33,158.59q-2.89-2.94-2.89-8.24V129.24q0-5.3,2.91-8.22t8.35-2.92q5.43,0,8.35,2.91c1.93,1.94,2.91,4.68,2.91,8.23v21.11c0,3.55-1,6.3-2.91,8.25s-4.73,2.93-8.35,2.93S1337.26,160.55,1335.33,158.59Zm11.1-5.72a5.8,5.8,0,0,0,.92-3.51V130.23a5.79,5.79,0,0,0-.92-3.49,3.65,3.65,0,0,0-5.48,0,5.8,5.8,0,0,0-.91,3.49v19.13a5.8,5.8,0,0,0,.92,3.51,3.66,3.66,0,0,0,5.47,0Z"/><path class="cls-7" d="M1363.65,123.44H1372v3.93h-8.32Zm2.76,16.6a5,5,0,0,1-1.11-3.5V118.29h4.45v17.33a1.44,1.44,0,0,0,.27.95.94.94,0,0,0,.77.33H1372v4.33h-2.1A4.53,4.53,0,0,1,1366.41,140Z"/><path class="cls-7" d="M1378.09,116.35h4.43v24.79h-4.43Zm8.59,13.23a2.32,2.32,0,0,0-.55-1.66,2.09,2.09,0,0,0-1.57-.57,1.93,1.93,0,0,0-1.51.58,2.32,2.32,0,0,0-.53,1.65l-.31-3.05a5.83,5.83,0,0,1,1.71-2.51,3.89,3.89,0,0,1,2.54-.87,4.12,4.12,0,0,1,3.43,1.53,6.73,6.73,0,0,1,1.22,4.32v12.14h-4.43Z"/><path class="cls-6" d="M1317.24,170.55h3.27l10.08,27.33h-3l-8.7-24.5-8.71,24.5h-3Zm-5.43,18.18h14.38v2.52h-14.38Z"/><path class="cls-6" d="M1338.2,178.37h2.71v19.51h-2.71Zm13,7.69a5.62,5.62,0,0,0-1.36-4,5.07,5.07,0,0,0-3.84-1.43,5.23,5.23,0,0,0-3.74,1.27,4.77,4.77,0,0,0-1.32,3.6l-.4-3.76a6.34,6.34,0,0,1,2.75-2.77,8.75,8.75,0,0,1,4-.86,6.08,6.08,0,0,1,4.92,2.08,8.93,8.93,0,0,1,1.74,5.88v11.84h-2.71Z"/><path class="cls-6" d="M1363.56,178.37h2.71v19.51h-2.71Zm13,7.69a5.62,5.62,0,0,0-1.36-4,5.08,5.08,0,0,0-3.85-1.43,5.22,5.22,0,0,0-3.73,1.27,4.77,4.77,0,0,0-1.32,3.6l-.4-3.76a6.34,6.34,0,0,1,2.75-2.77,8.75,8.75,0,0,1,4-.86,6.08,6.08,0,0,1,4.92,2.08,8.93,8.93,0,0,1,1.74,5.88v11.84h-2.71Z"/><path class="cls-6" d="M1389.48,170.55h2.71v2.7h-2.71Zm0,7.82h2.71v19.51h-2.71Z"/><path class="cls-6" d="M1415.05,178.37h2.88l-7.71,19.51h-2.15l-7.7-19.51h2.87l5.91,16Z"/><path class="cls-6" d="M1428.53,197.14a6.83,6.83,0,0,1-2.93-3,10.29,10.29,0,0,1-1-4.73v-2.2a11.55,11.55,0,0,1,1-4.94,6.92,6.92,0,0,1,2.82-3.12,8.58,8.58,0,0,1,4.43-1.08,7.94,7.94,0,0,1,4.18,1.06,6.71,6.71,0,0,1,2.64,3.07,11.74,11.74,0,0,1,.91,4.86v2.24h-14.1v-2.45H1438v-.18a6.69,6.69,0,0,0-1.36-4.49,4.79,4.79,0,0,0-3.85-1.59,5.32,5.32,0,0,0-4.21,1.68,6.88,6.88,0,0,0-1.48,4.73v2.49a6.22,6.22,0,0,0,1.57,4.54,6,6,0,0,0,4.46,1.6,6.71,6.71,0,0,0,2.68-.56,7.53,7.53,0,0,0,2.36-1.6l1.84,1.77a10.2,10.2,0,0,1-3.23,2.15,9.26,9.26,0,0,1-3.65.76A9.7,9.7,0,0,1,1428.53,197.14Z"/><path class="cls-6" d="M1449.65,178.37h2.71v19.51h-2.71Zm10,2.55a6.47,6.47,0,0,0-2.12-.32,5.23,5.23,0,0,0-3.79,1.31,4.77,4.77,0,0,0-1.36,3.62l-.39-3.76a7.55,7.55,0,0,1,2.81-2.72,7.75,7.75,0,0,1,3.8-1,7.1,7.1,0,0,1,2.42.39,5.5,5.5,0,0,1,1.89,1.14l-1.75,2.25A3.92,3.92,0,0,0,1459.63,180.92Z"/><path class="cls-6" d="M1473.58,197.85a12.33,12.33,0,0,1-2.77-.91,9.75,9.75,0,0,1-2.28-1.45l1.56-1.89a14.66,14.66,0,0,0,3.31,1.66,10,10,0,0,0,3.25.59,8.15,8.15,0,0,0,4.33-1,3,3,0,0,0,1.54-2.7,2.37,2.37,0,0,0-.75-1.92,4,4,0,0,0-1.87-.87,27.56,27.56,0,0,0-3.14-.37,2.34,2.34,0,0,0-.38,0l-.39,0h-.3a17.66,17.66,0,0,1-3.23-.56,4.34,4.34,0,0,1-2.17-1.41,4.48,4.48,0,0,1-.88-3,5.46,5.46,0,0,1,.91-3.2,5.65,5.65,0,0,1,2.67-2,11.54,11.54,0,0,1,4.22-.7,13,13,0,0,1,2.56.26,13.33,13.33,0,0,1,2.45.73,11.11,11.11,0,0,1,2.16,1.16l-1.56,1.86a13,13,0,0,0-2.9-1.25,9.8,9.8,0,0,0-2.82-.44,6.72,6.72,0,0,0-3.82.92,3,3,0,0,0-1.35,2.59,2.06,2.06,0,0,0,.73,1.74,4,4,0,0,0,1.86.76,27.3,27.3,0,0,0,3.07.3h.43l.12,0a17.4,17.4,0,0,1,3.48.51,4.68,4.68,0,0,1,2.42,1.56,5.13,5.13,0,0,1,1,3.37,5.34,5.34,0,0,1-1,3.23,6.07,6.07,0,0,1-2.86,2,12.91,12.91,0,0,1-4.53.7A14.8,14.8,0,0,1,1473.58,197.85Z"/><path class="cls-6" d="M1494.7,196.59a5.5,5.5,0,0,1-1.89-4.46,5.4,5.4,0,0,1,1.73-4.28,7.09,7.09,0,0,1,4.86-1.51h6.48l.27,2.52h-6.74a4.4,4.4,0,0,0-2.9.85,3.28,3.28,0,0,0,.26,5,6.29,6.29,0,0,0,3.64.91,11.81,11.81,0,0,0,3.91-.51c.93-.34,1.39-.81,1.39-1.43l.4,2.56a5.18,5.18,0,0,1-1.5,1,8.19,8.19,0,0,1-2.08.67,13.54,13.54,0,0,1-2.53.22A8,8,0,0,1,1494.7,196.59Zm11-11.08a5,5,0,0,0-1.27-3.67,4.74,4.74,0,0,0-3.6-1.31,8.48,8.48,0,0,0-2.72.45,7.73,7.73,0,0,0-2.37,1.28l-2-1.36a7.28,7.28,0,0,1,2.93-2.07,10.45,10.45,0,0,1,4-.75,9.33,9.33,0,0,1,4.16.86,6,6,0,0,1,2.63,2.48,8,8,0,0,1,.9,3.92v12.54h-2.71Z"/><path class="cls-6" d="M1518.1,178.37h2.71v19.51h-2.71Zm10,2.55a6.41,6.41,0,0,0-2.11-.32,5.25,5.25,0,0,0-3.8,1.31,4.8,4.8,0,0,0-1.35,3.62l-.4-3.76a7.63,7.63,0,0,1,2.81-2.72,7.76,7.76,0,0,1,3.81-1,7.14,7.14,0,0,1,2.42.39,5.5,5.5,0,0,1,1.89,1.14l-1.75,2.25A4,4,0,0,0,1528.07,180.92Z"/><path class="cls-6" d="M1536.31,178.37h2.79l6.41,18.1-1.41,3Zm17.28,0-8.31,24.08a5.71,5.71,0,0,1-1.18,2.12,4.07,4.07,0,0,1-1.81,1.11,8.66,8.66,0,0,1-2.63.34h-.77v-2.55h.77a3.84,3.84,0,0,0,2.4-.69,5.36,5.36,0,0,0,1.53-2.36l7.22-22Z"/><rect class="cls-8" x="1049.84" width="2.77" height="213.02"/><path class="cls-9" d="M448.63,163.8q-13.81-3.23-20.62-8.24-6.92,5-21.08,8.63l-1.77-3.47q13.39-3,19.95-7.53a49.1,49.1,0,0,1-8.32-11.05l3.14-1.59A40.59,40.59,0,0,0,428,151a36,36,0,0,0,7.67-10.8l3.35,1.49a43.23,43.23,0,0,1-8.18,11.48q6.75,4.68,19.7,7.24C449.88,161.54,449.23,162.68,448.63,163.8Zm-43.07-33.67V127h21.69a36.9,36.9,0,0,0-2.95-5.45l3.81-1.06q1.53,2.5,3.25,5.74l-2.29.77H450.5v3.18Zm2.54,14.81-2.18-3a83.23,83.23,0,0,0,14.27-9.74l2.79,2.56Q415.62,140.32,408.1,144.94Zm39.51-.87q-7.07-4.92-14.52-9.35l2.18-2.56q7.62,4.49,14.68,9Z"/><path class="cls-9" d="M459,163l-2-3c1.93-1.93,4-3.82,6.2-5.69v-15H457.7v-3.09h8.84v17.85q4.06,5.69,11.53,5.45,5.12,0,12.92.05t13-.05c-.5,1.16-.91,2.2-1.21,3.14q-6.56,0-14,0t-12-.2a14.17,14.17,0,0,1-11.94-5.54C462.59,159.19,460.65,161.23,459,163Zm7.82-31.79q-3.09-3.66-7-7.67l2.74-1.78,3.63,3.59c1.44,1.43,2.66,2.74,3.68,3.93Zm24.23,25.67a11.4,11.4,0,0,0-.56-2.8c1.22.06,2.52.09,3.91.09q3.19.3,3-3.23v-1.44h-9.14v6.65H485v-6.65h-9.14v7.28h-3.35V132.4h11.93q-4.37-2.37-8.53-4.49l2-1.88q4.06,2,8.13,4.25l9.49-4.88H471.62v-2.6h28.69v3.09l-11.38,6c.34.19.63.37.87.53h11v19.25q.25,5.07-5.28,5.16C493.82,156.91,492.35,156.94,491.07,156.91Zm-15.24-22v4.82H485v-4.82Zm0,7.33V147H485v-4.78Zm21.58-7.33h-9.14v4.82h9.14Zm-9.14,7.33V147h9.14v-4.78Z"/><path class="cls-9" d="M511.44,151.89v-2.8H531a30.87,30.87,0,0,0,.56-3.23h3.55c-.17,1.16-.36,2.23-.56,3.23H554.9v2.8h-19a15.12,15.12,0,0,0,7,5.76q4.6,2,13.18,3a33.74,33.74,0,0,0-1.78,3.23A51.1,51.1,0,0,1,540.63,160a16.28,16.28,0,0,1-7.41-6.46,13.93,13.93,0,0,1-6.73,6.56q-4.95,2.55-14.75,4.29a27.78,27.78,0,0,0-1.78-3.18q9.3-1.35,14-3.52t6.09-5.84Zm.61-22.43v-2.75h13.1c-1.32-1.51-3-3.28-5.08-5.31l3.15-1.3q3.09,2.79,5.33,5.16l-3.15,1.45h11.78q3.77-3.81,5.89-6.47l3.46,1.26q-2.34,2.55-4.93,5.21h12.7v2.75H534.9V134H552v2.7H534.9v4.68h20.72V144H510.67v-2.66h20.67v-4.68H514.43V134h16.91v-4.53Z"/><path class="cls-9" d="M562.85,151.89v-3.14H585v-2.26l9.6-5.26h-23v-3h27.82v3.33l-10.76,6.12v1.06h20.16v3.14H588.7v6.32q.3,5.68-5.94,5.64-3.3,0-6.81.05-.3-1.68-.66-3.57c2,.13,4,.19,6.2.19,2.57.17,3.74-1,3.5-3.37v-5.26Zm1.47-12.83v-9h32.35l-3-1.59q3.45-3.81,6.3-7.48l3.45,1.6c-2.06,2.5-4.25,5-6.55,7.47h10.52v9h-3.61v-5.94H568v5.94Zm8.64-9.7q-2.55-3.57-5.08-6.66l3.2-1.35q2.89,3.29,5.43,6.37Zm12.74-.77c-1.62-2.54-3.2-4.89-4.72-7l3.35-1.21c1.59,2.31,3.25,4.65,5,7Z"/><path class="cls-9" d="M616.12,126.32v-2.94h16.61v2.94h-6.86a85.6,85.6,0,0,1-3.2,10.37h8.69v21h-9.09v3.57h-3.1V143.59q-1.27,2.07-2.69,4.1c-.48-1.09-1-2.18-1.48-3.28a40.11,40.11,0,0,0,4.55-8,56.5,56.5,0,0,0,3-10.08Zm6.15,13.17v15.29h5.89V139.49Zm13.25-13.27v-3.13H660v3.13h-4.68v13.71h6.35V143h-6.35v21H652V143h-9.44a34.17,34.17,0,0,1-2.14,12.09,28.17,28.17,0,0,1-6.5,9.09c-1-.8-1.91-1.58-2.79-2.31a23.08,23.08,0,0,0,6-7.92q1.89-4,2.09-11h-5.44v-3.08h5.54V126.22Zm7.11,12.55v1.16H652V126.22h-9.34Z"/><path class="cls-9" d="M669.68,142.34a12.24,12.24,0,0,0-1.52-2.85,126.79,126.79,0,0,0,16.6-7.62l1.88,2.56Q679.13,138.38,669.68,142.34Zm35.19,20.36q-6.09.24-5.79-5.21V146.82H687.51q-1,6.7-4.9,10.45t-12.22,6.92c-.78-1.09-1.52-2.07-2.23-2.94q7.67-2.85,11.27-6a15.08,15.08,0,0,0,4.57-8.45H671.61v-2.89h12.8q.3-2.66.46-6h3.65c-.17,2.22-.35,4.23-.56,6h14.53v13q-.21,2.9,3.3,2.65h1.47c1.9.16,3-.68,3.2-2.51s.56-3.65.76-5.74a21.65,21.65,0,0,0,3.35.87,48.69,48.69,0,0,1-.86,6q-.72,4.77-5.94,4.49Zm-35.34-29v-7.48h20.16c-.81-1.73-1.66-3.39-2.54-5l3.66-.92q1.26,2.22,2.79,5.45l-1.52.43h19.55v7.48H708v-4.39H673.08v4.39Zm41.39,8.54q-8.24-4.14-16.61-7.77l1.57-2.41q8.49,3.57,16.76,7.33Z"/><path class="cls-9" d="M722.78,163.9c-.85-.67-1.79-1.4-2.84-2.17a24,24,0,0,0,3.37-7.74,54.35,54.35,0,0,0,.89-11.94V123.91A133.18,133.18,0,0,0,740.15,122l1.37,3q-6.3,1-14,1.54v7.14h12.29v14.86H727.35a37.09,37.09,0,0,1-1.32,8.35A33.11,33.11,0,0,1,722.78,163.9Zm13.76-27.35h-9v5.5c0,1.32,0,2.54,0,3.66h9.09Zm3.56,27.69a20.11,20.11,0,0,0-2.85-2.46,23.67,23.67,0,0,0,5.89-9.26q1.68-4.87,1.58-14V124.1a158.13,158.13,0,0,0,20.11-2l1.27,3.18q-9.5,1.26-18,1.74v9.89h19v2.94h-7V164h-3.41V139.83h-8.63q0,8.88-1.85,14.16A30.56,30.56,0,0,1,740.1,164.24Z"/><text/><path class="cls-10" d="M417,86.32,412.78,99h-5.42L421.12,58.6h6.28L441.21,99h-5.59l-4.33-12.71Zm13.28-4.08-4-11.64c-.87-2.64-1.48-5-2.08-7.37H424c-.58,2.36-1.21,4.83-2,7.3l-4,11.71Z"/><path class="cls-10" d="M449.19,85.48c.11,7.13,4.63,10.07,9.93,10.07a19.52,19.52,0,0,0,8-1.48l.92,3.74a23.26,23.26,0,0,1-9.68,1.85c-8.91,0-14.27-5.94-14.27-14.64s5.18-15.66,13.65-15.66c9.47,0,11.94,8.3,11.94,13.65a12.63,12.63,0,0,1-.18,2.47Zm15.45-3.8c.05-3.32-1.36-8.54-7.28-8.54-5.39,0-7.68,4.87-8.1,8.54Z"/><path class="cls-10" d="M475.55,93.66a14.43,14.43,0,0,0,7,2.07c3.85,0,5.64-1.9,5.64-4.32s-1.54-3.87-5.4-5.32c-5.24-1.89-7.72-4.75-7.71-8.22,0-4.68,3.8-8.51,10-8.51a14.11,14.11,0,0,1,7.11,1.78L490.92,75a11.45,11.45,0,0,0-6-1.71c-3.11,0-4.8,1.8-4.8,4,0,2.41,1.7,3.48,5.51,5,5,1.87,7.6,4.39,7.61,8.72,0,5.14-4,8.74-10.85,8.74a16.56,16.56,0,0,1-8.16-2Z"/><path class="cls-10" d="M506.39,61.67V70H514v4h-7.59V89.65c0,3.62,1,5.66,4,5.66a10.63,10.63,0,0,0,3.06-.38l.24,4a13.53,13.53,0,0,1-4.71.72,7.4,7.4,0,0,1-5.7-2.23c-1.45-1.6-2-4.16-2-7.57V74h-4.49V70h4.49V63Z"/><path class="cls-10" d="M519.92,56.44h5.25V74.55h.12a10.43,10.43,0,0,1,3.79-3.73,10.66,10.66,0,0,1,5.41-1.46c3.91,0,10.11,2.38,10.11,12.39V99h-5.25V82.33c0-4.68-1.77-8.61-6.71-8.61A7.68,7.68,0,0,0,525.52,79a7.21,7.21,0,0,0-.35,2.52V99h-5.25Z"/><path class="cls-10" d="M556.17,85.48c.11,7.13,4.63,10.07,9.93,10.07a19.52,19.52,0,0,0,8-1.48l.92,3.74a23.26,23.26,0,0,1-9.68,1.85c-8.91,0-14.27-5.94-14.27-14.64s5.18-15.66,13.65-15.66c9.46,0,11.94,8.3,11.94,13.65a12.63,12.63,0,0,1-.18,2.47Zm15.45-3.8c0-3.32-1.37-8.54-7.28-8.54-5.39,0-7.68,4.87-8.1,8.54Z"/><path class="cls-10" d="M589.61,61.67V70h7.58v4h-7.58V89.65c0,3.62,1,5.66,4,5.66a10.63,10.63,0,0,0,3.06-.38l.24,4a13.53,13.53,0,0,1-4.71.72,7.4,7.4,0,0,1-5.7-2.23c-1.45-1.6-2-4.16-2-7.57V74H580V70h4.49V63Z"/><path class="cls-10" d="M609,61.82a3.28,3.28,0,1,1-3.27-3.29A3.19,3.19,0,0,1,609,61.82ZM603.14,99V70h5.25V99Z"/><path class="cls-10" d="M637.87,98a20,20,0,0,1-8.33,1.68c-8.75,0-14.48-6-14.48-14.82s6.1-15.47,15.59-15.47A17.2,17.2,0,0,1,638,70.91L636.81,75a12.77,12.77,0,0,0-6.17-1.4c-6.62,0-10.25,5-10.23,11,0,6.72,4.32,10.86,10.1,10.86A15.24,15.24,0,0,0,637,94Z"/><path class="cls-10" d="M662.19,63H649.87V58.6h30V63H667.44V99h-5.25Z"/><path class="cls-10" d="M681.43,79.06c0-3.43-.09-6.35-.24-9h4.62l.2,5.69h.19c1.36-3.89,4.56-6.35,8.08-6.35a5.68,5.68,0,0,1,1.47.15v5a8.65,8.65,0,0,0-1.8-.15c-3.72,0-6.34,2.8-7.06,6.75a13.59,13.59,0,0,0-.21,2.46V99h-5.25Z"/><path class="cls-10" d="M716.85,99l-.47-3.66h-.16a10.79,10.79,0,0,1-8.87,4.32c-5.87,0-8.87-4.16-8.87-8.32,0-7,6.23-10.89,17.44-10.81v-.62c0-2.35-.66-6.72-6.61-6.69a14.14,14.14,0,0,0-7.55,2.16l-1.2-3.51a18.22,18.22,0,0,1,9.57-2.54c8.87,0,11,6.06,11,11.88V92.09a44.69,44.69,0,0,0,.44,6.94ZM716,84.22c-5.72-.12-12.25.9-12.25,6.51,0,3.47,2.28,5.06,4.92,5.06a7.27,7.27,0,0,0,7.07-4.86,5.3,5.3,0,0,0,.26-1.66Z"/><path class="cls-10" d="M729.68,77.86c0-3-.1-5.44-.24-7.84h4.66l.29,4.77h.15a10.69,10.69,0,0,1,9.59-5.43c4,0,10.23,2.4,10.23,12.36V99h-5.25V82.3c0-4.69-1.77-8.61-6.71-8.61a7.6,7.6,0,0,0-7.11,5.41,8.21,8.21,0,0,0-.36,2.45V99h-5.25Z"/><path class="cls-10" d="M762.23,93.66a14.43,14.43,0,0,0,7,2.07c3.86,0,5.64-1.9,5.64-4.32s-1.53-3.87-5.39-5.32c-5.24-1.89-7.72-4.75-7.71-8.22,0-4.68,3.8-8.51,10-8.51a14.14,14.14,0,0,1,7.11,1.78L777.59,75a11.38,11.38,0,0,0-6-1.71c-3.11,0-4.81,1.8-4.81,4,0,2.41,1.71,3.48,5.51,5,5,1.87,7.6,4.39,7.62,8.72,0,5.14-4,8.74-10.85,8.74a16.56,16.56,0,0,1-8.16-2Z"/><path class="cls-10" d="M786.73,79.47c0-3.7-.1-6.71-.24-9.45h4.71l.29,4.94h.12a11.33,11.33,0,0,1,10.3-5.6c7,0,12.32,5.92,12.32,14.72,0,10.46-6.4,15.61-13.19,15.61-3.88,0-7.22-1.68-8.95-4.57H792v15.79h-5.24ZM792,87.23a9.89,9.89,0,0,0,.23,2.14,8.11,8.11,0,0,0,7.89,6.19c5.6,0,8.82-4.59,8.82-11.24,0-5.79-3-10.77-8.62-10.77a8.39,8.39,0,0,0-8,6.51,9.27,9.27,0,0,0-.34,2.15Z"/><path class="cls-10" d="M847.2,84.25c0,10.74-7.45,15.44-14.43,15.44-7.87,0-13.95-5.73-13.95-14.94,0-9.71,6.39-15.39,14.41-15.39C841.57,69.36,847.2,75.41,847.2,84.25Zm-23,.34c0,6.36,3.65,11.15,8.8,11.15s8.84-4.73,8.84-11.31c0-4.91-2.47-11.12-8.75-11.12S824.19,79.08,824.19,84.59Z"/><path class="cls-10" d="M853.87,79.06c0-3.43-.09-6.35-.25-9h4.63l.2,5.69h.19c1.35-3.89,4.55-6.35,8.08-6.35a5.68,5.68,0,0,1,1.47.15v5a8.65,8.65,0,0,0-1.8-.15c-3.72,0-6.35,2.8-7.06,6.75a13.59,13.59,0,0,0-.21,2.46V99h-5.25Z"/><path class="cls-10" d="M881.27,61.67V70h7.58v4h-7.58V89.65c0,3.62,1,5.66,4,5.66a10.69,10.69,0,0,0,3.06-.38l.24,4a13.64,13.64,0,0,1-4.72.72,7.38,7.38,0,0,1-5.69-2.23c-1.46-1.6-2-4.16-2-7.57V74h-4.5V70h4.5V63Z"/><path class="cls-10" d="M910.88,99l-.46-3.66h-.16a10.8,10.8,0,0,1-8.88,4.32c-5.86,0-8.86-4.16-8.86-8.32,0-7,6.23-10.89,17.44-10.81v-.62c0-2.35-.67-6.72-6.61-6.69a14.2,14.2,0,0,0-7.56,2.16l-1.2-3.51a18.28,18.28,0,0,1,9.58-2.54c8.87,0,11,6.06,11,11.88V92.09a46,46,0,0,0,.44,6.94Zm-.82-14.81c-5.71-.12-12.25.9-12.25,6.51,0,3.47,2.28,5.06,4.93,5.06a7.27,7.27,0,0,0,7.07-4.86,5.58,5.58,0,0,0,.25-1.66Z"/><path class="cls-10" d="M929.81,61.67V70h7.58v4h-7.58V89.65c0,3.62,1,5.66,4,5.66a10.74,10.74,0,0,0,3.06-.38l.24,4a13.64,13.64,0,0,1-4.72.72,7.38,7.38,0,0,1-5.69-2.23c-1.46-1.6-2.05-4.16-2.05-7.57V74h-4.5V70h4.5V63Z"/><path class="cls-10" d="M949.23,61.82a3.18,3.18,0,0,1-3.36,3.28,3.14,3.14,0,0,1-3.18-3.28A3.2,3.2,0,0,1,946,58.53,3.16,3.16,0,0,1,949.23,61.82ZM943.33,99V70h5.25V99Z"/><path class="cls-10" d="M983.64,84.25c0,10.74-7.46,15.44-14.43,15.44-7.87,0-14-5.73-14-14.94,0-9.71,6.38-15.39,14.41-15.39C978,69.36,983.64,75.41,983.64,84.25Zm-23,.34c0,6.36,3.65,11.15,8.79,11.15s8.85-4.73,8.85-11.31c0-4.91-2.48-11.12-8.75-11.12S960.63,79.08,960.63,84.59Z"/><path class="cls-10" d="M990.31,77.86c0-3-.1-5.44-.24-7.84h4.67l.29,4.77h.14a10.72,10.72,0,0,1,9.6-5.43c4,0,10.22,2.4,10.22,12.36V99h-5.25V82.3c0-4.69-1.76-8.61-6.7-8.61a7.58,7.58,0,0,0-7.11,5.41,8.19,8.19,0,0,0-.37,2.45V99h-5.25Z"/></g></g></svg>