<svg xmlns="http://www.w3.org/2000/svg" viewBox="0 0 1625.08 213.02"><defs><style>.cls-1{fill:#77c4ee;}.cls-2{fill:#57aadf;}.cls-3{fill:#575858;}.cls-4{fill:#a6a6a6;}.cls-5{fill:#56aadf;}.cls-6{fill:#d77116;}.cls-7{fill:#5ca077;}.cls-8{fill:#727171;}</style></defs><g id="图层_2" data-name="图层 2"><g id="图层_1-2" data-name="图层 1"><path class="cls-1" d="M241.92,193.67H212.07V30.88c0-6.85,5.5-11.39,14.56-11.39h107.8c9.41,1.57,14.92,13.64,14.92,28.26H244.74a2.84,2.84,0,0,0-2.83,2.84Z"/><path class="cls-2" d="M334.43,19.49l-62.66,89.82s-3.07,4.41-3.07,6.54,3.54,7.4,3.54,7.4L318,193.67h31.33l-47.77-73.52s-2-2.61-1.95-4.3,1.82-3.82,1.82-3.82l32.62-44.12,15.27-20.16c7.57-10.27,2.64-19.35-3.44-24.5A17.44,17.44,0,0,0,334.43,19.49Z"/><path class="cls-1" d="M36.41,166.4h75.47l0,27.26H12.2A12.4,12.4,0,0,1,0,181.07V19.47H33.59l0,144.1A2.84,2.84,0,0,0,36.41,166.4Z"/><path class="cls-1" d="M164.14,47.76H68.68l0-28.26,116.85,0c6.42,0,12,5.5,12,10.13V182.65a11,11,0,0,1-11,11H124.29V166.4h39.85a2.84,2.84,0,0,0,2.84-2.83V50.6A2.84,2.84,0,0,0,164.14,47.76Z"/><path class="cls-3" d="M413.7,60.29H399.55V55.44H434v4.85H419.77V99.62H413.7Z"/><path class="cls-3" d="M439.37,53.08h6.07v19.8h.14a11,11,0,0,1,4.35-4.06,12.9,12.9,0,0,1,6.21-1.64c4.48,0,11.66,2.62,11.66,13.57V99.62h-6.07V81.4c0-5.11-2-9.44-7.73-9.44a8.67,8.67,0,0,0-8.14,5.77,6.58,6.58,0,0,0-.42,2.75V99.62h-6.07Z"/><path class="cls-3" d="M481.85,84.81c.14,7.8,5.38,11,11.46,11a22.89,22.89,0,0,0,9.24-1.64l1,4.13a28.25,28.25,0,0,1-11.11,2c-10.28,0-16.42-6.42-16.42-16S482,67.18,491.72,67.18c10.9,0,13.8,9.11,13.8,14.94a20.45,20.45,0,0,1-.21,2.69Zm17.8-4.13c.07-3.67-1.58-9.37-8.41-9.37-6.14,0-8.84,5.37-9.32,9.37Z"/><path class="cls-3" d="M562.38,98.18c-2.21,1-6.62,2.1-12.28,2.1-13.11,0-23-7.87-23-22.35,0-13.83,9.87-23.21,24.29-23.21,5.8,0,9.45,1.18,11,2L561,61.34a22.8,22.8,0,0,0-9.38-1.83c-10.9,0-18.15,6.62-18.15,18.22,0,10.82,6.56,17.76,17.87,17.76a25.19,25.19,0,0,0,9.8-1.83Z"/><path class="cls-3" d="M570.51,53.08h6.07v19.8h.14a11,11,0,0,1,4.35-4.06,12.9,12.9,0,0,1,6.21-1.64c4.48,0,11.66,2.62,11.66,13.57V99.62h-6.07V81.4c0-5.11-2-9.44-7.73-9.44A8.67,8.67,0,0,0,577,77.73a6.58,6.58,0,0,0-.42,2.75V99.62h-6.07Z"/><path class="cls-3" d="M628.11,99.62l-.48-4h-.21a12.66,12.66,0,0,1-10.21,4.72c-6.76,0-10.21-4.53-10.21-9.12,0-7.67,7.17-11.86,20.08-11.8v-.65c0-2.62-.76-7.34-7.59-7.34a17.33,17.33,0,0,0-8.7,2.36L609.41,70a21.49,21.49,0,0,1,11-2.82c10.21,0,12.7,6.62,12.7,13V92a42.82,42.82,0,0,0,.55,7.6Zm-.9-16.19c-6.62-.13-14.14,1-14.14,7.15,0,3.74,2.62,5.51,5.73,5.51a8.3,8.3,0,0,0,8.07-5.32,5.58,5.58,0,0,0,.34-1.83Z"/><path class="cls-3" d="M643.62,77.8c0-3.74-.07-7-.27-9.9h5.31l.21,6.23h.27a9.94,9.94,0,0,1,9.25-6.95,6.91,6.91,0,0,1,1.72.19v5.44a9.67,9.67,0,0,0-2.07-.19c-4.27,0-7.31,3.08-8.14,7.4a15.39,15.39,0,0,0-.27,2.69V99.62h-6Z"/><path class="cls-3" d="M667.33,76.48c0-3.27-.07-6-.27-8.58h5.31l.28,5.11h.2a11.62,11.62,0,0,1,10.49-5.83,9.83,9.83,0,0,1,9.45,6.36h.14a13.32,13.32,0,0,1,3.73-4.13A11.75,11.75,0,0,1,704,67.18c4.42,0,11,2.75,11,13.76V99.62h-5.93v-18c0-6.09-2.35-9.76-7.25-9.76a7.79,7.79,0,0,0-7.17,5.24,9,9,0,0,0-.49,2.88v19.6h-5.93v-19c0-5-2.35-8.71-7-8.71a8.22,8.22,0,0,0-7.52,5.76,7.74,7.74,0,0,0-.48,2.82V99.62h-5.94Z"/><path class="cls-3" d="M771.64,83.5c0,11.73-8.56,16.85-16.63,16.85-9,0-16-6.3-16-16.33,0-10.62,7.32-16.84,16.56-16.84C765.15,67.18,771.64,73.8,771.64,83.5Zm-26.5.33c0,6.94,4.21,12.19,10.15,12.19s10.14-5.18,10.14-12.32c0-5.38-2.83-12.2-10-12.2S745.14,77.8,745.14,83.83Z"/><path class="cls-3" d="M780.88,99.62V72.29h-4.69V67.9h4.69V66.39c0-4.46,1-8.52,3.86-11.08a12,12,0,0,1,8.14-3,14.71,14.71,0,0,1,5.18.92l-.83,4.46a9.38,9.38,0,0,0-3.86-.72c-5.18,0-6.49,4.32-6.49,9.17V67.9H795v4.39h-8.07V99.62Z"/><path class="cls-3" d="M823.45,60.29H809.31V55.44h34.43v4.85H829.52V99.62h-6.07Z"/><path class="cls-3" d="M846.51,77.8c0-3.74-.07-7-.27-9.9h5.31l.21,6.23H852a9.94,9.94,0,0,1,9.25-6.95,6.91,6.91,0,0,1,1.72.19v5.44a9.67,9.67,0,0,0-2.07-.19c-4.27,0-7.31,3.08-8.14,7.4a15.39,15.39,0,0,0-.27,2.69V99.62h-6Z"/><path class="cls-3" d="M888.19,99.62l-.48-4h-.21a12.66,12.66,0,0,1-10.21,4.72c-6.76,0-10.21-4.53-10.21-9.12,0-7.67,7.17-11.86,20.08-11.8v-.65c0-2.62-.76-7.34-7.59-7.34a17.33,17.33,0,0,0-8.7,2.36L869.49,70a21.49,21.49,0,0,1,11-2.82c10.21,0,12.7,6.62,12.7,13V92a42.82,42.82,0,0,0,.55,7.6Zm-.9-16.19c-6.62-.13-14.14,1-14.14,7.15,0,3.74,2.62,5.51,5.72,5.51A8.3,8.3,0,0,0,887,90.77a5.58,5.58,0,0,0,.34-1.83Z"/><path class="cls-3" d="M903.7,76.48c0-3.27-.07-6-.28-8.58h5.39l.34,5.24h.14a12.41,12.41,0,0,1,11-6c4.62,0,11.8,2.62,11.8,13.5V99.62h-6.07V81.34c0-5.12-2-9.38-7.73-9.38a8.56,8.56,0,0,0-8.14,5.9,7.83,7.83,0,0,0-.42,2.69V99.62H903.7Z"/><path class="cls-3" d="M942,93.72a16.44,16.44,0,0,0,8,2.3c4.42,0,6.49-2.1,6.49-4.72s-1.72-4.26-6.21-5.83c-6-2-8.83-5.18-8.83-9,0-5.11,4.35-9.3,11.52-9.3a17.34,17.34,0,0,1,8.21,2l-1.52,4.2a13.43,13.43,0,0,0-6.83-1.84c-3.58,0-5.59,2-5.59,4.33,0,2.62,2,3.8,6.35,5.37,5.8,2.1,8.77,4.86,8.77,9.57,0,5.58-4.56,9.51-12.49,9.51a19.89,19.89,0,0,1-9.39-2.16Z"/><path class="cls-3" d="M970.93,78.25c0-4.06-.14-7.34-.28-10.35h5.45l.28,5.44h.14c2.48-3.87,6.41-6.16,11.86-6.16,8.08,0,14.15,6.49,14.15,16.12,0,11.41-7.32,17-15.18,17-4.42,0-8.28-1.84-10.28-5h-.14V112.6h-6Zm6,8.46a12.21,12.21,0,0,0,.28,2.36,9.28,9.28,0,0,0,9.1,6.75c6.42,0,10.15-5,10.15-12.26,0-6.35-3.52-11.79-9.94-11.79a9.59,9.59,0,0,0-9.18,7.14,9.19,9.19,0,0,0-.41,2.36Z"/><path class="cls-3" d="M1041.3,83.5c0,11.73-8.55,16.85-16.63,16.85-9,0-16-6.3-16-16.33,0-10.62,7.31-16.84,16.56-16.84C1034.82,67.18,1041.3,73.8,1041.3,83.5Zm-26.49.33C1014.81,90.77,1019,96,1025,96s10.14-5.18,10.14-12.32c0-5.38-2.83-12.2-10-12.2S1014.81,77.8,1014.81,83.83Z"/><path class="cls-3" d="M1049.77,77.8c0-3.74-.07-7-.28-9.9h5.32l.2,6.23h.28a9.94,9.94,0,0,1,9.25-6.95,6.91,6.91,0,0,1,1.72.19v5.44a9.67,9.67,0,0,0-2.07-.19c-4.28,0-7.31,3.08-8.14,7.4a15.34,15.34,0,0,0-.28,2.69V99.62h-6Z"/><path class="cls-3" d="M1082.31,58.79V67.9h8.7v4.39h-8.7V89.4c0,3.93,1.18,6.16,4.56,6.16a14.54,14.54,0,0,0,3.52-.39l.27,4.32a15.49,15.49,0,0,1-5.38.79,8.61,8.61,0,0,1-6.55-2.43c-1.73-1.7-2.35-4.52-2.35-8.25V72.29h-5.17V67.9h5.17V60.29Z"/><path class="cls-4" d="M446.16,165.79q-13.82-3.24-20.62-8.25-6.9,5-21.07,8.63l-1.78-3.47q13.41-3,20-7.53a49.27,49.27,0,0,1-8.33-11l3.15-1.6A41,41,0,0,0,425.54,153a35.71,35.71,0,0,0,7.67-10.81l3.35,1.49a43.28,43.28,0,0,1-8.17,11.49q6.75,4.68,19.7,7.23C447.41,163.52,446.77,164.66,446.16,165.79ZM403.1,132.11v-3.18h21.68a37.39,37.39,0,0,0-2.94-5.45l3.81-1.06q1.52,2.51,3.25,5.74l-2.29.77H448v3.18Zm2.54,14.81-2.19-3a82.32,82.32,0,0,0,14.27-9.75l2.8,2.56Q413.16,142.3,405.64,146.92Zm39.51-.86q-7.06-4.92-14.53-9.36l2.19-2.56q7.6,4.49,14.67,9Z"/><path class="cls-4" d="M456.56,165l-2-3c1.93-1.93,4-3.82,6.19-5.69v-15h-5.53v-3.09h8.83v17.85q4.06,5.7,11.53,5.45,5.13,0,12.93.05t13-.05c-.51,1.16-.91,2.2-1.22,3.14q-6.55,0-14-.05t-12-.19a14.2,14.2,0,0,1-11.93-5.55Q459,162.31,456.56,165Zm7.82-31.8q-3.11-3.66-7-7.67l2.74-1.78,3.63,3.59q2.16,2.14,3.69,3.93Zm24.22,25.67a11,11,0,0,0-.56-2.8c1.22.07,2.52.1,3.91.1,2.14.19,3.13-.89,3-3.23v-1.45h-9.14v6.66h-3.3v-6.66h-9.14v7.28H470V134.38H482q-4.36-2.35-8.53-4.48l2-1.89q4.07,2,8.12,4.25l9.5-4.87H469.15v-2.61h28.69v3.09l-11.37,6c.34.19.62.37.86.53h11v19.25q.26,5.07-5.28,5.16C491.36,158.89,489.89,158.92,488.6,158.89Zm-15.23-22v4.83h9.14v-4.83Zm0,7.33V149h9.14v-4.78ZM495,136.84h-9.14v4.83H495Zm-9.14,7.33V149H495v-4.78Z"/><path class="cls-4" d="M509,153.87v-2.8h19.55a26.06,26.06,0,0,0,.56-3.23h3.56c-.17,1.16-.36,2.24-.56,3.23h20.36v2.8h-19a15.2,15.2,0,0,0,7,5.77q4.59,2,13.18,3a30.87,30.87,0,0,0-1.78,3.24A51.43,51.43,0,0,1,538.17,162a16.12,16.12,0,0,1-7.41-6.46,13.93,13.93,0,0,1-6.73,6.56q-4.95,2.56-14.75,4.29a32.3,32.3,0,0,0-1.78-3.18c6.19-.9,10.87-2.07,14-3.52s5.12-3.39,6.1-5.84Zm.61-22.43v-2.75h13.1q-2-2.26-5.08-5.31l3.15-1.3c2.07,1.87,3.84,3.59,5.33,5.16l-3.14,1.45h11.78q3.75-3.81,5.89-6.47l3.45,1.26q-2.34,2.55-4.92,5.21h12.69v2.75h-19.4V136h17.06v2.71H532.43v4.67h20.72V146H508.21v-2.66h20.67v-4.67H512V136h16.91v-4.53Z"/><path class="cls-4" d="M560.39,153.87v-3.13h22.14v-2.27l9.59-5.26h-23v-3H597v3.33l-10.77,6.12v1.07h20.16v3.13H586.23v6.32q.32,5.7-5.94,5.65-3.3,0-6.8,0-.32-1.68-.66-3.57c2,.13,4,.2,6.19.2,2.58.16,3.74-1,3.51-3.38v-5.26ZM561.86,141v-9h32.35l-3.05-1.6q3.45-3.81,6.3-7.47l3.45,1.59q-3.1,3.76-6.55,7.48h10.51v9h-3.6v-5.93H565.52V141Zm8.63-9.7q-2.54-3.57-5.08-6.65l3.2-1.36q2.89,3.28,5.44,6.37Zm12.75-.77q-2.44-3.81-4.72-7l3.35-1.21q2.39,3.48,5,7Z"/><path class="cls-4" d="M613.66,128.3v-2.94h16.6v2.94h-6.85a87.62,87.62,0,0,1-3.2,10.38h8.68v21H619.8v3.57h-3.1V145.57c-.84,1.39-1.74,2.75-2.69,4.1-.47-1.09-1-2.18-1.47-3.28a40.27,40.27,0,0,0,4.54-8,56.83,56.83,0,0,0,3-10.09Zm6.14,13.17v15.3h5.89v-15.3Zm13.26-13.26v-3.14h24.47v3.14h-4.67v13.7h6.35V145h-6.35v21h-3.35V145h-9.45a34,34,0,0,1-2.13,12.08,28.32,28.32,0,0,1-6.5,9.09q-1.47-1.2-2.79-2.31a23.18,23.18,0,0,0,6-7.91q1.88-4,2.08-10.95h-5.43v-3.09h5.53v-13.7Zm7.1,12.54v1.16h9.35v-13.7h-9.35Z"/><path class="cls-4" d="M667.22,144.32a12.28,12.28,0,0,0-1.53-2.85,124.36,124.36,0,0,0,16.61-7.62l1.88,2.56Q676.67,140.37,667.22,144.32Zm35.19,20.36q-6.09.24-5.79-5.21V148.81H685q-1,6.7-4.9,10.44t-12.21,6.92c-.78-1.09-1.52-2.07-2.24-2.94,5.12-1.9,8.87-3.89,11.28-6a15.11,15.11,0,0,0,4.57-8.44H669.15v-2.9h12.79q.31-2.66.46-6h3.66q-.25,3.33-.56,6H700v13q-.19,2.9,3.3,2.65h1.48c1.89.16,3-.67,3.19-2.51s.56-3.65.77-5.74a21.65,21.65,0,0,0,3.35.87,46.2,46.2,0,0,1-.87,6c-.47,3.19-2.45,4.68-5.94,4.49Zm-35.34-29v-7.47h20.16c-.82-1.74-1.66-3.4-2.54-5l3.65-.92q1.27,2.22,2.8,5.45l-1.53.44h19.55v7.47h-3.65v-4.39H670.62v4.39Zm41.38,8.54q-8.22-4.14-16.6-7.76l1.57-2.42q8.48,3.57,16.76,7.34Z"/><path class="cls-4" d="M720.32,165.88c-.85-.67-1.8-1.4-2.85-2.17a23.85,23.85,0,0,0,3.38-7.74,54.87,54.87,0,0,0,.89-11.94V125.89A130.78,130.78,0,0,0,737.68,124l1.38,3q-6.3,1-14,1.54v7.14h12.29v14.86H724.89a38.16,38.16,0,0,1-1.32,8.35A33.38,33.38,0,0,1,720.32,165.88Zm13.76-27.35h-9V144c0,1.32,0,2.54,0,3.67h9.09Zm3.55,27.69a19.94,19.94,0,0,0-2.84-2.46,23.59,23.59,0,0,0,5.89-9.26q1.68-4.87,1.57-13.94V126.08a158.13,158.13,0,0,0,20.11-2l1.27,3.18q-9.5,1.26-18,1.74v9.89h19v2.94h-7v24.12h-3.4V141.81h-8.63q-.06,8.88-1.86,14.16A30.56,30.56,0,0,1,737.63,166.22Z"/><path class="cls-5" d="M1225,14.87V79.55a5.26,5.26,0,0,1-5.26,5.26H1155v17.5h66.45a21,21,0,0,0,21-21V14.87Z"/><path class="cls-6" d="M1338.64,84.83H1274a5.26,5.26,0,0,1-5.26-5.26V14.85h-17.5V81.3a21,21,0,0,0,21,21h66.41Z"/><path class="cls-7" d="M1268.68,197.88V133.2a5.26,5.26,0,0,1,5.26-5.26h64.72V110.43h-66.45a21,21,0,0,0-21,21v66.41Z"/><path class="cls-4" d="M1381.28,80.7H1384V108h-2.71Zm1.92,24.82h15.64V108H1383.2Z"/><path class="cls-4" d="M1411.51,107.48a7.52,7.52,0,0,1-2.9-2.34l1.83-1.88a5.66,5.66,0,0,0,2.25,1.85,7.28,7.28,0,0,0,3.09.65,5.09,5.09,0,0,0,4.16-1.78,7.61,7.61,0,0,0,1.48-5V80.7h2.71V99a11.45,11.45,0,0,1-1,5,7.17,7.17,0,0,1-3,3.2,9.52,9.52,0,0,1-4.72,1.1A9,9,0,0,1,1411.51,107.48Z"/><path class="cls-4" d="M1438.6,80.68h2.7V108h-2.7ZM1440.27,94h9.32a5.3,5.3,0,0,0,2.68-.66,4.6,4.6,0,0,0,1.79-1.89,6.23,6.23,0,0,0,.65-2.82,6,6,0,0,0-.63-2.82,4.48,4.48,0,0,0-1.79-1.89,5.25,5.25,0,0,0-2.7-.67h-9.32V80.68h9.17a8.62,8.62,0,0,1,4.17,1,6.81,6.81,0,0,1,2.78,2.77,9.17,9.17,0,0,1,0,8.29,6.91,6.91,0,0,1-2.79,2.78,8.61,8.61,0,0,1-4.16,1h-9.17Zm8.76,1.68,2.5-.87,7,13.28h-3.23Z"/><path class="cls-3" d="M1392.26,161.09h-7.6V127.4l-5.3,2.25v-8.16l5.79-2.93h7.11Z"/><path class="cls-3" d="M1406.82,158.59q-2.89-2.94-2.9-8.24V129.24q0-5.3,2.91-8.22c1.94-2,4.73-2.92,8.35-2.92s6.41,1,8.35,2.91,2.91,4.68,2.91,8.23v21.11q0,5.33-2.91,8.25t-8.35,2.93Q1409.72,161.53,1406.82,158.59Zm11.1-5.72a5.8,5.8,0,0,0,.92-3.51V130.23a5.79,5.79,0,0,0-.92-3.49,3.65,3.65,0,0,0-5.48,0,5.8,5.8,0,0,0-.91,3.49v19.13a5.8,5.8,0,0,0,.92,3.51,3.66,3.66,0,0,0,5.47,0Z"/><path class="cls-3" d="M1435.14,123.44h8.32v3.93h-8.32Zm2.76,16.6a5,5,0,0,1-1.11-3.5V118.29h4.45v17.33a1.44,1.44,0,0,0,.27.95.94.94,0,0,0,.77.33h1.18v4.33h-2.1A4.53,4.53,0,0,1,1437.9,140Z"/><path class="cls-3" d="M1449.58,116.35H1454v24.79h-4.43Zm8.59,13.23a2.28,2.28,0,0,0-.56-1.66,2.06,2.06,0,0,0-1.56-.57,1.92,1.92,0,0,0-1.51.58,2.32,2.32,0,0,0-.53,1.65l-.31-3.05a5.83,5.83,0,0,1,1.71-2.51,3.89,3.89,0,0,1,2.54-.87,4.14,4.14,0,0,1,3.43,1.53,6.73,6.73,0,0,1,1.22,4.32v12.14h-4.43Z"/><path class="cls-4" d="M1388.73,170.55H1392l10.08,27.33h-3l-8.7-24.5-8.71,24.5h-3Zm-5.43,18.18h14.38v2.52H1383.3Z"/><path class="cls-4" d="M1409.69,178.37h2.71v19.51h-2.71Zm13,7.69a5.62,5.62,0,0,0-1.36-4,5.08,5.08,0,0,0-3.85-1.43,5.22,5.22,0,0,0-3.73,1.27,4.77,4.77,0,0,0-1.32,3.6l-.4-3.76a6.34,6.34,0,0,1,2.75-2.77,8.75,8.75,0,0,1,4-.86,6.08,6.08,0,0,1,4.92,2.08,8.93,8.93,0,0,1,1.74,5.88v11.84h-2.71Z"/><path class="cls-4" d="M1435.05,178.37h2.71v19.51h-2.71Zm13,7.69a5.62,5.62,0,0,0-1.36-4,5.08,5.08,0,0,0-3.85-1.43,5.22,5.22,0,0,0-3.73,1.27,4.77,4.77,0,0,0-1.32,3.6l-.4-3.76a6.34,6.34,0,0,1,2.75-2.77,8.75,8.75,0,0,1,4-.86,6.08,6.08,0,0,1,4.92,2.08,8.93,8.93,0,0,1,1.74,5.88v11.84H1448Z"/><path class="cls-4" d="M1461,170.55h2.71v2.7H1461Zm0,7.82h2.71v19.51H1461Z"/><path class="cls-4" d="M1486.54,178.37h2.87l-7.7,19.51h-2.15l-7.71-19.51h2.88l5.9,16Z"/><path class="cls-4" d="M1500,197.14a6.83,6.83,0,0,1-2.93-3,10.29,10.29,0,0,1-1-4.73v-2.2a11.55,11.55,0,0,1,1-4.94,7,7,0,0,1,2.81-3.12,8.64,8.64,0,0,1,4.44-1.08,7.94,7.94,0,0,1,4.18,1.06,6.71,6.71,0,0,1,2.64,3.07,11.74,11.74,0,0,1,.91,4.86v2.24h-14.1v-2.45h11.58v-.18a6.69,6.69,0,0,0-1.36-4.49,4.79,4.79,0,0,0-3.85-1.59,5.32,5.32,0,0,0-4.21,1.68,6.88,6.88,0,0,0-1.48,4.73v2.49a6.22,6.22,0,0,0,1.57,4.54,6,6,0,0,0,4.46,1.6,6.71,6.71,0,0,0,2.68-.56,7.53,7.53,0,0,0,2.36-1.6l1.84,1.77a10.2,10.2,0,0,1-3.23,2.15,9.3,9.3,0,0,1-3.65.76A9.7,9.7,0,0,1,1500,197.14Z"/><path class="cls-4" d="M1521.14,178.37h2.71v19.51h-2.71Zm10,2.55a6.52,6.52,0,0,0-2.12-.32,5.27,5.27,0,0,0-3.8,1.31,4.8,4.8,0,0,0-1.35,3.62l-.39-3.76a7.55,7.55,0,0,1,2.81-2.72,7.75,7.75,0,0,1,3.8-1,7.1,7.1,0,0,1,2.42.39,5.5,5.5,0,0,1,1.89,1.14l-1.75,2.25A3.92,3.92,0,0,0,1531.12,180.92Z"/><path class="cls-4" d="M1545.07,197.85a12.33,12.33,0,0,1-2.77-.91,9.75,9.75,0,0,1-2.28-1.45l1.56-1.89a14.66,14.66,0,0,0,3.31,1.66,10,10,0,0,0,3.25.59,8.15,8.15,0,0,0,4.33-1,3,3,0,0,0,1.53-2.7,2.36,2.36,0,0,0-.74-1.92,4,4,0,0,0-1.87-.87,27.56,27.56,0,0,0-3.14-.37,2.34,2.34,0,0,0-.38,0l-.39,0h-.3a17.66,17.66,0,0,1-3.23-.56,4.41,4.41,0,0,1-2.18-1.41,4.54,4.54,0,0,1-.87-3,5.46,5.46,0,0,1,.91-3.2,5.65,5.65,0,0,1,2.67-2,11.54,11.54,0,0,1,4.22-.7,13.08,13.08,0,0,1,2.56.26,13.33,13.33,0,0,1,2.45.73,11.41,11.41,0,0,1,2.16,1.16l-1.56,1.86a13,13,0,0,0-2.9-1.25,9.8,9.8,0,0,0-2.82-.44,6.72,6.72,0,0,0-3.82.92,3,3,0,0,0-1.35,2.59,2.06,2.06,0,0,0,.73,1.74,4,4,0,0,0,1.85.76,27.78,27.78,0,0,0,3.08.3h.43l.11,0a17.4,17.4,0,0,1,3.49.51,4.68,4.68,0,0,1,2.42,1.56,5.13,5.13,0,0,1,1,3.37,5.34,5.34,0,0,1-1,3.23,6.07,6.07,0,0,1-2.86,2,12.91,12.91,0,0,1-4.53.7A14.8,14.8,0,0,1,1545.07,197.85Z"/><path class="cls-4" d="M1566.18,196.59a5.52,5.52,0,0,1-1.88-4.46,5.43,5.43,0,0,1,1.72-4.28,7.14,7.14,0,0,1,4.87-1.51h6.48l.26,2.52h-6.73a4.4,4.4,0,0,0-2.9.85,3.28,3.28,0,0,0,.26,5,6.29,6.29,0,0,0,3.64.91,11.81,11.81,0,0,0,3.91-.51c.93-.34,1.39-.81,1.39-1.43l.4,2.56a5.18,5.18,0,0,1-1.5,1,8.19,8.19,0,0,1-2.08.67,13.54,13.54,0,0,1-2.53.22A8,8,0,0,1,1566.18,196.59Zm11-11.08a5,5,0,0,0-1.27-3.67,4.74,4.74,0,0,0-3.6-1.31,8.43,8.43,0,0,0-2.72.45,7.73,7.73,0,0,0-2.37,1.28l-2-1.36a7.28,7.28,0,0,1,2.93-2.07,10.45,10.45,0,0,1,4-.75,9.25,9.25,0,0,1,4.15.86,5.93,5.93,0,0,1,2.64,2.48,8,8,0,0,1,.9,3.92v12.54h-2.71Z"/><path class="cls-4" d="M1589.59,178.37h2.71v19.51h-2.71Zm10,2.55a6.45,6.45,0,0,0-2.11-.32,5.25,5.25,0,0,0-3.8,1.31,4.8,4.8,0,0,0-1.35,3.62l-.4-3.76a7.63,7.63,0,0,1,2.81-2.72,7.76,7.76,0,0,1,3.81-1,7,7,0,0,1,2.41.39,5.32,5.32,0,0,1,1.89,1.14l-1.74,2.25A4,4,0,0,0,1599.56,180.92Z"/><path class="cls-4" d="M1607.8,178.37h2.79l6.41,18.1-1.41,3Zm17.28,0-8.31,24.08a5.71,5.71,0,0,1-1.18,2.12,4.07,4.07,0,0,1-1.81,1.11,8.66,8.66,0,0,1-2.63.34h-.77v-2.55h.77a3.84,3.84,0,0,0,2.4-.69,5.36,5.36,0,0,0,1.53-2.36l7.22-22Z"/><rect class="cls-8" x="1121.33" width="2.77" height="213.02"/></g></g></svg>