<svg xmlns="http://www.w3.org/2000/svg" viewBox="0 0 356.23 174.21"><defs><style>.cls-1{fill:#73cdff;}.cls-2{fill:#4fb4f7;}</style></defs><g id="图层_2" data-name="图层 2"><g id="图层_1-2" data-name="图层 1"><path class="cls-1" d="M246.92,174.2H217.07V11.4c0-6.84,5.5-11.39,14.56-11.39h107.8c9.41,1.58,14.92,13.65,14.92,28.27H249.74a2.84,2.84,0,0,0-2.83,2.84Z"/><path class="cls-2" d="M339.43,0,276.77,89.84s-3.07,4.41-3.07,6.53,3.54,7.41,3.54,7.41L323,174.2h31.33l-47.77-73.53s-2-2.61-1.95-4.3,1.82-3.81,1.82-3.81l32.62-44.12,15.27-20.16c3.1-4.09,2.64-19.35-3.44-24.5A17.46,17.46,0,0,0,339.43,0Z"/><path class="cls-1" d="M36.41,146.93h75.47l0,27.26H12.2A12.4,12.4,0,0,1,0,161.59V0H33.59l0,144.1A2.84,2.84,0,0,0,36.41,146.93Z"/><path class="cls-1" d="M164.14,28.29H68.68L68.66,0,185.51,0c6.42,0,12,5.5,12,10.13V163.18a11,11,0,0,1-11,11H124.29V146.93h39.85A2.84,2.84,0,0,0,167,144.1v-113A2.84,2.84,0,0,0,164.14,28.29Z"/></g></g></svg>