<svg xmlns="http://www.w3.org/2000/svg" viewBox="0 0 354.36 174.33"><defs><style>.cls-1{fill:#73cdff;}.cls-2{fill:#4fb4f7;}</style></defs><title>资源 1</title><g id="图层_2" data-name="图层 2"><g id="图层_1-2" data-name="图层 1"><path class="cls-1" d="M28.35.38l0,143.27c0,3.88,3.84,7,7.73,7h75.82l0,23.93H12.2A12.4,12.4,0,0,1,0,162V.38Z" transform="translate(0 -0.26)"/><path class="cls-1" d="M197.51,163.55c0,6.66-7,11-13.63,11h-54V150.52h33.65a6.25,6.25,0,0,0,6.5-6.62v-114c0-3.49-3.76-5.66-7.5-5.66H80.87L80.85.4l104.66,0c6.42,0,12,5.5,12,10.12Z" transform="translate(0 -0.26)"/><path class="cls-2" d="M341.63.41c13.64.58,12.71,9.66,12.71,23.75C354.34,21.3,342.81,2.35,341.63.41Z" transform="translate(0 -0.26)"/><path class="cls-2" d="M354.34,24.16v0l-29.79,0L341.42.4h.21C342.81,2.35,354.34,21.3,354.34,24.16Z" transform="translate(0 -0.26)"/><path class="cls-2" d="M324.55,24.22l29.79,0c-.07,2.08-5.3,8.48-5.8,9.12L304.46,92.93s-1.79,2.2-1.83,3.82,1.95,4.3,1.95,4.3l49.75,73.38H326l-47.77-70.27s-3.94-5.21-3.94-7.41,3.48-6.53,3.48-6.53Z" transform="translate(0 -0.26)"/><path class="cls-2" d="M341.63.41h-.21l.11-.14Z" transform="translate(0 -0.26)"/><path class="cls-1" d="M341.42.4,324.55,24.22H252.27a7.09,7.09,0,0,0-7.21,7.21V174.58h-28V11.78c0-6.84,5.49-11.39,12.71-11.39H341.42Z" transform="translate(0 -0.26)"/></g></g></svg>